<svg width="132" height="40" viewBox="0 0 132 40" fill="none" xmlns="http://www.w3.org/2000/svg">
<path d="M70.5266 30.1683C73.4581 30.1683 76.1768 28.753 78.4376 27.0694C80.7579 25.3416 82.9979 23.0288 85.0422 20.583C88.055 16.9784 94.9497 6.87205 96.8994 3.99692C97.1241 3.66548 96.8823 3.22499 96.4818 3.22499H90.7668C90.6033 3.22499 90.4536 3.29997 90.3599 3.434C89.3439 4.88776 83.2988 13.5139 80.9999 16.2643C79.1294 18.5021 77.1543 20.5276 75.4218 21.8177C73.6301 23.1519 71.334 23.4343 70.5266 23.4344C68.7829 23.4344 67.5509 22.7012 66.3386 21.1041C64.9941 19.3328 63.9546 16.8537 62.7315 13.8239C61.5993 11.0193 60.2762 7.64717 58.3666 5.03947C56.3306 2.25902 53.3726 0.000175476 49.0453 0.000175476C44.9809 0.000190735 41.2646 2.04416 38.2089 4.49825C35.0994 6.99559 32.2711 10.2421 29.9184 13.3587C27.5509 16.4948 25.5803 19.6131 24.2057 21.937C23.5001 23.1299 21.7409 26.1237 20.9146 27.5304C20.7188 27.8637 20.9595 28.2828 21.3461 28.2828H27.9955C28.1726 28.2828 28.3359 28.19 28.4258 28.0375C28.7979 27.4062 29.7752 25.7481 30.0016 25.3653C31.2933 23.1816 33.1233 20.2898 35.2928 17.4159C37.4771 14.5224 39.9226 11.7589 42.4255 9.74864C44.9823 7.69523 47.2173 6.73416 49.0453 6.73414C50.6105 6.73414 51.7521 7.40459 52.9336 9.01803C54.2415 10.8042 55.2542 13.2907 56.4872 16.3446C57.6291 19.1733 58.9842 22.5528 60.975 25.1755C63.098 27.9723 66.1421 30.1683 70.5266 30.1683Z" fill="#363636"/>
<path d="M70.5266 30.1681C63.4105 30.1681 59.6991 25.0598 57.5522 17.4157C54.4295 6.29682 57.1129 0.263905 49.0453 -6.10352e-05C44.9809 -4.57764e-05 41.2646 2.04393 38.2089 4.49802C35.0994 6.99535 32.2711 10.2419 29.9184 13.3584C27.5509 16.4946 25.5803 19.6128 24.2057 21.9367C23.396 23.3057 21.1988 27.0461 20.6161 28.0383C20.5263 28.1912 20.5257 28.3777 20.612 28.5325L23.7861 34.2253C23.9731 34.5606 24.4499 34.5733 24.6482 34.2446C25.963 32.0658 29.7693 25.7579 30.0016 25.365C31.2933 23.1814 33.1233 20.2896 35.2928 17.4157C37.4771 14.5221 39.9226 11.7586 42.4255 9.74841C44.9823 7.695 47.2173 6.73392 49.0453 6.7339C50.6105 6.7339 51.7521 7.40435 52.9336 9.0178C54.2415 10.804 55.2542 13.2904 56.4872 16.3444C57.6291 19.1731 58.9842 22.5526 60.975 25.1752C63.098 27.972 66.1421 30.1681 70.5266 30.1681Z" fill="#363636"/>
<path d="M101.387 3.23347C101.387 3.23347 104.892 8.02118 108.463 12.821L113.107 19.2966L113.167 23.7604L113.227 28.2243L116.546 28.26L119.854 28.2838V23.7485V19.2013L121.262 17.2253C122.039 16.1421 123.603 13.9399 124.749 12.333C125.883 10.726 127.328 8.70234 127.949 7.83338C128.318 7.31621 131.07 3.23347 131.07 3.23347H123.405C123.405 3.23347 121.901 5.42188 121.561 5.90499C117.657 11.4759 116.594 12.94 116.51 12.8448C116.453 12.7805 109.482 3.23347 109.482 3.23347H101.387Z" fill="#363636"/>
<path d="M11.6964 14.0788C6.36577 14.6493 2.18935 17.8582 0.654425 22.5884C0.166581 24.0978 0 25.2031 0 26.9859C0 28.7686 0.178479 30.0284 0.583033 31.3001C1.20176 33.166 2.10606 34.6754 3.4744 36.1135C5.88982 38.645 9.31663 39.9999 13.3146 39.9999C17.2649 39.9999 20.6679 38.6925 23.0714 36.2561C25.6415 33.6652 26.8076 30.4206 26.6529 26.4035C26.4744 21.7565 24.3922 18.2148 20.5132 15.8734C18.1573 14.471 14.7186 13.7698 11.6964 14.0788ZM15.5991 20.461C18.4667 21.4237 20.0254 23.979 19.8707 27.4613C19.7755 29.5887 19.1568 31.0267 17.7766 32.2984C16.551 33.4394 15.1708 33.9386 13.2789 33.9386C11.0657 33.9386 9.25713 33.0591 8.07917 31.3952C6.69893 29.4817 6.35387 26.7482 7.17487 24.3593C8.35284 20.9364 12.0057 19.2488 15.5991 20.461Z" fill="#363636"/>
<path d="M90.5039 15.7586V28.2838H97.8439H105.184V25.242V22.2002H101.186H97.1875V12.7168V3.23347H93.8457H90.5039V15.7586Z" fill="#363636"/>
</svg>
